<?xml version="1.0" encoding="UTF-8"?>
<svg id="Calque_1" xmlns="http://www.w3.org/2000/svg" version="1.1" viewBox="0 0 750.6 629.92">
  <!-- Generator: Adobe Illustrator 29.0.1, SVG Export Plug-In . SVG Version: 2.1.0 Build 192)  -->
  <defs>
    <style>
      .st0 {
        fill: #ff5e0b;
      }
    </style>
  </defs>
  <path class="st0" d="M45.75,45.75C15.25,76.25,0,113.18,0,156.48v58.35C0,258.16,15.25,295.07,45.75,325.57c30.5,30.5,67.4,45.75,110.74,45.75,6.18,0,9.28,3.55,9.28,10.61,0,6.2-3.11,9.28-9.28,9.28H0v238.71h594.11c43.31,0,80.23-15.25,110.73-45.75,30.5-30.5,45.76-67.41,45.76-110.73v-59.68c0-42.43-15.48-79.11-46.42-110.07-30.95-30.93-67.63-46.41-110.07-46.41-6.2,0-9.28-3.09-9.28-9.29s3.08-9.28,9.28-9.28h156.49V0H156.48C113.15,0,76.25,15.25,45.75,45.75ZM375.3,185.2c71.67,0,129.76,58.1,129.76,129.76s-58.1,129.76-129.76,129.76-129.76-58.1-129.76-129.76,58.1-129.76,129.76-129.76Z"/>
</svg>