<?xml version="1.0" encoding="UTF-8"?>
<svg id="Calque_1" xmlns="http://www.w3.org/2000/svg" version="1.1" viewBox="0 0 1322.84 230.16">
  <!-- Generator: Adobe Illustrator 29.0.1, SVG Export Plug-In . SVG Version: 2.1.0 Build 192)  -->
  <defs>
    <style>
      .st0 {
        fill: #fff;
      }
    </style>
  </defs>
  <rect class="st0" x="0" y="0" width="87.22" height="230.16"/>
  <path class="st0" d="M341.13,0h-65.42C269.25,0,262.63,1.29,255.85,3.88c-6.78,2.59-12.92,6.22-18.41,10.9-5.5,4.69-10.02,10.74-13.57,18.17-3.56,7.43-5.33,15.51-5.33,24.23,0,2.26-1.3,3.39-3.88,3.39-2.27,0-3.39-1.13-3.39-3.39V0h-87.22v230.16h87.22V90.61c0-2.26,1.13-3.39,3.39-3.39h93.03c2.26,0,3.39,1.13,3.39,3.39v139.55h87.71V57.18c0-15.82-5.66-29.31-16.96-40.46C370.52,5.57,356.96,0,341.13,0Z"/>
  <path class="st0" d="M924.05,139.55c0,2.26-1.13,3.39-3.39,3.39h-93.03c-2.26,0-3.39-1.13-3.39-3.39V0h-87.7v172.99c0,15.83,5.65,29.32,16.96,40.46,11.3,11.15,24.87,16.72,40.7,16.72h65.42c14.21,0,27.37-5.25,39.49-15.75,12.11-10.49,18.17-24.47,18.17-41.91,0-2.25,1.13-3.39,3.39-3.39s3.39,1.14,3.39,3.39v57.66h87.22V0h-87.22v139.55Z"/>
  <path class="st0" d="M1305.88,16.72C1294.57,5.57,1281,0,1265.17,0h-65.41c-6.47,0-13.08,1.29-19.87,3.88-6.78,2.59-12.92,6.22-18.41,10.9-5.5,4.69-10.02,10.74-13.57,18.17-3.56,7.43-5.33,15.51-5.33,24.23,0,2.26-1.3,3.39-3.88,3.39-2.26,0-3.39-1.13-3.39-3.39V0h-87.22v230.16h87.22V90.61c0-2.26,1.13-3.39,3.39-3.39h93.03c2.26,0,3.39,1.13,3.39,3.39v139.55h87.7V57.18c0-15.82-5.65-29.31-16.96-40.46Z"/>
  <path class="st0" d="M448.22,16.72c-11.14,11.14-16.72,24.64-16.72,40.46v21.32c0,15.83,5.57,29.31,16.72,40.46,11.15,11.15,24.63,16.72,40.46,16.72,2.26,0,3.39,1.3,3.39,3.88,0,2.26-1.13,3.39-3.39,3.39h-57.18v87.22h217.08c15.82,0,29.32-5.57,40.46-16.72,11.14-11.15,16.72-24.63,16.72-40.46v-21.81c0-15.51-5.66-28.91-16.96-40.22-11.31-11.3-24.71-16.96-40.22-16.96-2.26,0-3.39-1.13-3.39-3.39s1.13-3.39,3.39-3.39h57.18V0h-217.08C472.84,0,459.36,5.57,448.22,16.72ZM568.63,67.67c26.19,0,47.41,21.23,47.41,47.41s-21.23,47.41-47.41,47.41-47.41-21.23-47.41-47.41,21.23-47.41,47.41-47.41Z"/>
</svg>