<?xml version="1.0" encoding="UTF-8"?>
<svg id="Calque_1" xmlns="http://www.w3.org/2000/svg" version="1.1" viewBox="0 0 1322.83 805.58">
  <!-- Generator: Adobe Illustrator 29.0.1, SVG Export Plug-In . SVG Version: 2.1.0 Build 192)  -->
  <defs>
    <style>
      .st0 {
        fill: #ff5e0b;
      }
    </style>
  </defs>
  <path class="st0" d="M420.59,33.44c-22.29,22.29-33.43,49.27-33.43,80.92v42.64c0,31.66,11.14,58.63,33.43,80.92,22.29,22.29,49.26,33.44,80.92,33.44,4.51,0,6.78,2.59,6.78,7.75,0,4.53-2.27,6.78-6.78,6.78h-114.35v174.44h434.16c31.65,0,58.63-11.14,80.92-33.43,22.29-22.29,33.44-49.26,33.44-80.92v-43.61c0-31.01-11.31-57.81-33.92-80.44-22.62-22.61-49.42-33.92-80.43-33.92-4.53,0-6.78-2.26-6.78-6.79s2.25-6.78,6.78-6.78h114.36V0h-434.16C469.85,0,442.88,11.14,420.59,33.44ZM661.41,135.34c52.37,0,94.83,42.46,94.83,94.83s-42.46,94.83-94.83,94.83-94.83-42.46-94.83-94.83,42.46-94.83,94.83-94.83Z"/>
  <g>
    <rect class="st0" x="0" y="575.41" width="87.22" height="230.16"/>
    <path class="st0" d="M341.13,575.41h-65.42c-6.47,0-13.08,1.29-19.87,3.88-6.78,2.59-12.92,6.22-18.41,10.9-5.5,4.69-10.02,10.74-13.57,18.17-3.56,7.43-5.33,15.51-5.33,24.23,0,2.26-1.3,3.39-3.88,3.39-2.27,0-3.39-1.13-3.39-3.39v-57.18h-87.22v230.16h87.22v-139.55c0-2.26,1.13-3.39,3.39-3.39h93.03c2.26,0,3.39,1.13,3.39,3.39v139.55h87.71v-172.99c0-15.82-5.66-29.31-16.96-40.46-11.31-11.15-24.88-16.72-40.7-16.72Z"/>
    <path class="st0" d="M924.04,714.96c0,2.26-1.13,3.39-3.39,3.39h-93.03c-2.26,0-3.39-1.13-3.39-3.39v-139.55h-87.7v172.99c0,15.83,5.65,29.32,16.96,40.46,11.3,11.15,24.87,16.72,40.7,16.72h65.42c14.21,0,27.37-5.25,39.49-15.75,12.11-10.49,18.17-24.47,18.17-41.91,0-2.25,1.13-3.39,3.39-3.39s3.39,1.14,3.39,3.39v57.66h87.22v-230.16h-87.22v139.55Z"/>
    <path class="st0" d="M1305.88,592.13c-11.31-11.15-24.88-16.72-40.71-16.72h-65.41c-6.47,0-13.08,1.29-19.87,3.88-6.78,2.59-12.92,6.22-18.41,10.9-5.5,4.69-10.02,10.74-13.57,18.17-3.56,7.43-5.33,15.51-5.33,24.23,0,2.26-1.3,3.39-3.88,3.39-2.26,0-3.39-1.13-3.39-3.39v-57.18h-87.22v230.16h87.22v-139.55c0-2.26,1.13-3.39,3.39-3.39h93.03c2.26,0,3.39,1.13,3.39,3.39v139.55h87.7v-172.99c0-15.82-5.65-29.31-16.96-40.46Z"/>
    <path class="st0" d="M448.21,592.13c-11.14,11.14-16.72,24.64-16.72,40.46v21.32c0,15.83,5.57,29.31,16.72,40.46,11.15,11.15,24.63,16.72,40.46,16.72,2.26,0,3.39,1.3,3.39,3.88,0,2.26-1.13,3.39-3.39,3.39h-57.18v87.22h217.08c15.82,0,29.32-5.57,40.46-16.72,11.14-11.15,16.72-24.63,16.72-40.46v-21.81c0-15.51-5.66-28.91-16.96-40.22-11.31-11.3-24.71-16.96-40.22-16.96-2.26,0-3.39-1.13-3.39-3.39s1.13-3.39,3.39-3.39h57.18v-87.22h-217.08c-15.83,0-29.32,5.57-40.46,16.72ZM568.63,643.08c26.19,0,47.41,21.23,47.41,47.41s-21.23,47.41-47.41,47.41-47.41-21.23-47.41-47.41,21.23-47.41,47.41-47.41Z"/>
  </g>
</svg>